# xmcd
#
# Track frame offsets:
#	150
#	9840
#	20072
#	30255
#	41272
#	54702
#	65817
#	75655
#	85752
#	96842
#	106935
#	118592
#	129312
#	140820
#	151790
#	161575
#	174160
#	186940
#	198065
#	209695
#	221357
#	231427
#	243175
#	253622
#	263875
#	275965
#	285212
#	296400
#	308412
#	319770
#	331290
#	341825
#
# Disc length: 4711 seconds
#
# Revision: 0
# Processed by: cddbd v1.5.1PL2 Copyright (c) Steve Scherf et al.
# Submitted via: dBpowerAMP V4.0
#
DISCID=c0126520
DTITLE=Jimmie Skinner - Doin' My Time CD3
DYEAR=2003
DGENRE=Country
TTITLE0=I Ain't Got Time
TTITLE1=Help Me Find My Broken Heart
TTITLE2=Your Flyin' Days Are Through
TTITLE3=I Saw Your Face In The Crowd
TTITLE4=Singing Teacher In Heaven
TTITLE5=Ready To Go Home
TTITLE6=I've Got A Lot Of Love, Baby
TTITLE7=By Degrees
TTITLE8=I'm Allergic To Your Kisses
TTITLE9=Baby I Could Change My Ways
TTITLE10=What A Pleasure
TTITLE11=Don't Give Your Heart To A Rambler
TTITLE12=My Broken Heart's Startin' To Show
TTITLE13=Too Hot To Handle
TTITLE14=Don't Get Around Much Anymore
TTITLE15=John Henry And The Waterboy
TTITLE16=Blame The Right One
TTITLE17=I Don't Need A Doctor
TTITLE18=Beautiful
TTITLE19=Jesus Loves Us All
TTITLE20=(My Heart's) On A Budget
TTITLE21=Steppin' Out On You
TTITLE22=Want You For My Baby
TTITLE23=Dime A Dozen (That's What You Are)
TTITLE24=How Low Can You Feel
TTITLE25=I Need A Little Lovin'
TTITLE26=Another Saturday Night
TTITLE27=Just Ramblin' On
TTITLE28=No Maybe In My Baby's Eyes
TTITLE29=Hafta Do Somethin' 'Bout That
TTITLE30=No Fault Of Mine
TTITLE31=Born To Be Wild
EXTD=
EXTT0=
EXTT1=
EXTT2=
EXTT3=
EXTT4=
EXTT5=
EXTT6=
EXTT7=
EXTT8=
EXTT9=
EXTT10=
EXTT11=
EXTT12=
EXTT13=
EXTT14=
EXTT15=
EXTT16=
EXTT17=
EXTT18=
EXTT19=
EXTT20=
EXTT21=
EXTT22=
EXTT23=
EXTT24=
EXTT25=
EXTT26=
EXTT27=
EXTT28=
EXTT29=
EXTT30=
EXTT31=
PLAYORDER=
